<svg width="232" height="232" viewBox="0 0 232 232" fill="none" xmlns="http://www.w3.org/2000/svg">
<g id="Component 2">
<path id="Ellipse 4" d="M55.1093 61.079C85.4414 27.45 137.292 24.7772 170.921 55.1093C204.55 85.4413 207.223 137.292 176.891 170.921C146.559 204.55 94.708 207.223 61.079 176.891C27.45 146.559 24.7773 94.708 55.1093 61.079ZM159.581 155.308C181.29 131.239 179.377 94.1285 155.308 72.4191C131.239 50.7098 94.1285 52.6227 72.4192 76.6918C50.7098 100.761 52.6228 137.872 76.6918 159.581C100.761 181.29 137.872 179.377 159.581 155.308Z" fill="#151515"/>
<g id="Group">
<path id="R" d="M167.131 72.1221L168.349 71.1521L170.156 73.4213C170.517 73.8743 170.912 74.1329 171.34 74.1969C171.783 74.2627 172.214 74.1288 172.633 73.7953C173.009 73.4957 173.227 73.1199 173.286 72.6678C173.345 72.2158 173.194 71.7632 172.833 71.3102L171.016 69.0281L172.298 68.007L174.166 70.3532C174.616 70.9173 174.895 71.5049 175.005 72.1161C175.123 72.7205 175.077 73.2946 174.868 73.8385C174.674 74.3842 174.329 74.8544 173.833 75.2492C173.312 75.6645 172.763 75.9056 172.188 75.9726C171.62 76.0482 171.059 75.9574 170.505 75.7002C169.95 75.4431 169.449 75.0324 169 74.4683L167.131 72.1221ZM162.516 74.142L171.491 66.9942L172.665 68.4685L163.691 75.6164L162.516 74.142ZM166.438 79.0652L167.833 72.8199L169.426 73.7935L167.918 80.9242L166.438 79.0652Z" fill="white"/>
<path id="o" d="M172.719 89.8662C172.394 89.1734 172.264 88.4686 172.326 87.7516C172.399 87.03 172.638 86.369 173.045 85.7685C173.456 85.1779 174.008 84.7205 174.701 84.3963C175.394 84.0721 176.094 83.9436 176.801 84.0108C177.512 84.0879 178.163 84.3321 178.754 84.7433C179.355 85.1499 179.817 85.6996 180.141 86.3924C180.47 87.0951 180.603 87.8049 180.541 88.5218C180.478 89.2388 180.241 89.8925 179.83 90.4831C179.433 91.079 178.888 91.539 178.196 91.8633C177.503 92.1875 176.796 92.3134 176.074 92.2409C175.357 92.1783 174.698 91.9437 174.098 91.5371C173.507 91.1258 173.048 90.5688 172.719 89.8662ZM174.292 89.1297C174.482 89.5355 174.738 89.8501 175.06 90.0735C175.396 90.3022 175.767 90.4243 176.172 90.4396C176.582 90.4649 176.995 90.3803 177.41 90.1858C177.826 89.9913 178.151 89.7308 178.384 89.4045C178.617 89.0781 178.751 88.7198 178.786 88.3297C178.83 87.9349 178.757 87.5346 178.568 87.1288C178.382 86.733 178.122 86.4207 177.785 86.192C177.464 85.9686 177.103 85.8419 176.703 85.812C176.307 85.792 175.902 85.8792 175.486 86.0738C175.07 86.2683 174.739 86.5261 174.491 86.8472C174.247 87.1782 174.104 87.5411 174.059 87.9359C174.029 88.3359 174.107 88.7339 174.292 89.1297Z" fill="white"/>
<path id="a" d="M177.327 103.192C177.178 102.498 177.22 101.829 177.452 101.188C177.686 100.557 178.066 100.012 178.594 99.5527C179.135 99.102 179.779 98.7967 180.527 98.637C181.286 98.4749 181.998 98.4902 182.665 98.683C183.345 98.8841 183.921 99.2248 184.392 99.7052C184.876 100.194 185.193 100.786 185.341 101.48C185.467 102.068 185.449 102.613 185.288 103.117C185.141 103.629 184.877 104.065 184.496 104.426C184.114 104.787 183.646 105.027 183.09 105.145L180.879 105.618C180.323 105.737 179.797 105.709 179.302 105.536C178.809 105.373 178.386 105.089 178.031 104.684C177.687 104.277 177.452 103.78 177.327 103.192ZM179.055 103.125C179.195 103.776 179.526 104.253 180.048 104.555C180.573 104.867 181.177 104.951 181.861 104.805C182.321 104.706 182.707 104.529 183.021 104.272C183.335 104.015 183.553 103.7 183.674 103.328C183.809 102.964 183.829 102.563 183.736 102.125C183.644 101.697 183.462 101.34 183.188 101.052C182.927 100.772 182.6 100.574 182.206 100.457C181.815 100.351 181.389 100.347 180.93 100.445C180.47 100.543 180.084 100.72 179.77 100.977C179.458 101.245 179.235 101.561 179.101 101.925C178.979 102.297 178.964 102.697 179.055 103.125ZM177.99 105.514L180.058 105.072L181.998 104.976L183.793 104.275L185.684 103.871L186.061 105.634L178.367 107.277L177.99 105.514Z" fill="white"/>
<path id="d" d="M178.879 117.518C178.891 116.808 179.082 116.166 179.452 115.593C179.822 115.031 180.316 114.586 180.933 114.258C181.562 113.94 182.258 113.788 183.023 113.801C183.799 113.814 184.49 113.99 185.096 114.328C185.713 114.677 186.197 115.138 186.548 115.713C186.91 116.298 187.085 116.946 187.073 117.656C187.062 118.257 186.922 118.784 186.653 119.239C186.393 119.704 186.038 120.07 185.585 120.335C185.132 120.601 184.622 120.729 184.054 120.72L181.792 120.682C181.224 120.672 180.719 120.527 180.275 120.246C179.832 119.976 179.483 119.604 179.229 119.13C178.985 118.656 178.869 118.119 178.879 117.518ZM180.578 117.842C180.57 118.289 180.662 118.679 180.853 119.01C181.055 119.352 181.335 119.619 181.692 119.811C182.05 120.003 182.463 120.103 182.933 120.111C183.403 120.118 183.82 120.033 184.183 119.853C184.547 119.673 184.83 119.416 185.032 119.08C185.245 118.756 185.356 118.37 185.363 117.922C185.371 117.485 185.273 117.095 185.071 116.753C184.88 116.422 184.606 116.155 184.249 115.953C183.892 115.761 183.478 115.661 183.008 115.653C182.538 115.645 182.122 115.731 181.758 115.911C181.394 116.101 181.106 116.359 180.893 116.683C180.69 117.018 180.585 117.405 180.578 117.842ZM178.972 121.732L179.002 119.93L181.116 119.965L183.028 120.309L184.934 120.029L190.801 120.128L190.771 121.931L178.972 121.732Z" fill="white"/>
<path id="t" d="M175.464 138.238L185.904 142.141L185.272 143.83L174.833 139.927L175.464 138.238ZM181.958 138.654L183.493 139.227L181.542 144.447L180.007 143.874L181.958 138.654Z" fill="white"/>
<path id="o_2" d="M169.305 150.693C169.713 150.046 170.235 149.555 170.872 149.221C171.519 148.892 172.204 148.736 172.929 148.754C173.648 148.781 174.332 148.998 174.979 149.406C175.626 149.814 176.112 150.333 176.438 150.965C176.757 151.605 176.904 152.285 176.877 153.004C176.859 153.729 176.646 154.415 176.238 155.062C175.825 155.719 175.299 156.214 174.662 156.549C174.025 156.884 173.347 157.038 172.628 157.011C171.912 156.999 171.231 156.789 170.584 156.381C169.937 155.973 169.449 155.446 169.12 154.8C168.785 154.163 168.626 153.482 168.644 152.757C168.671 152.038 168.891 151.35 169.305 150.693ZM170.775 151.62C170.536 151.999 170.41 152.384 170.395 152.775C170.385 153.182 170.482 153.56 170.688 153.909C170.888 154.268 171.183 154.57 171.571 154.814C171.959 155.059 172.354 155.191 172.754 155.211C173.155 155.231 173.529 155.15 173.876 154.969C174.232 154.793 174.53 154.515 174.769 154.136C175.002 153.766 175.123 153.378 175.134 152.972C175.148 152.58 175.06 152.208 174.869 151.855C174.672 151.512 174.38 151.218 173.991 150.973C173.603 150.728 173.207 150.589 172.803 150.553C172.393 150.528 172.01 150.603 171.654 150.779C171.301 150.97 171.008 151.25 170.775 151.62Z" fill="white"/>
<path id="w" d="M155.069 167.051L162.224 171.601L160.706 172.689L155.641 169.283L156.084 168.945L157.736 174.82L156.883 175.431L151.849 171.982L152.311 171.671L153.913 177.561L152.395 178.65L150.38 170.413L151.233 169.802L156.136 172.982L155.656 173.326L154.216 167.662L155.069 167.051Z" fill="white"/>
<path id="e" d="M138.748 176.223C139.478 175.931 140.203 175.83 140.921 175.92C141.633 176.024 142.277 176.296 142.853 176.737C143.419 177.182 143.845 177.765 144.133 178.485C144.421 179.206 144.51 179.917 144.402 180.619C144.298 181.331 144.029 181.968 143.594 182.53C143.149 183.096 142.577 183.518 141.877 183.798C141.197 184.069 140.535 184.151 139.892 184.043C139.239 183.939 138.656 183.671 138.143 183.241C137.619 182.814 137.218 182.251 136.939 181.551C136.89 181.429 136.85 181.298 136.817 181.158C136.779 181.032 136.744 180.887 136.714 180.723L142.712 178.329L143.259 179.699L138.129 181.746L138.534 180.949C138.732 181.388 138.969 181.729 139.242 181.972C139.516 182.216 139.827 182.363 140.176 182.411C140.515 182.464 140.888 182.41 141.294 182.248C141.72 182.078 142.054 181.839 142.295 181.53C142.537 181.222 142.677 180.866 142.716 180.462C142.759 180.069 142.689 179.644 142.507 179.187C142.325 178.73 142.074 178.366 141.753 178.094C141.433 177.822 141.067 177.656 140.655 177.597C140.247 177.548 139.825 177.61 139.389 177.785C139.013 177.934 138.694 178.138 138.432 178.396C138.16 178.657 137.963 178.959 137.841 179.302L136.344 178.647C136.533 178.089 136.839 177.602 137.262 177.186C137.684 176.771 138.179 176.45 138.748 176.223Z" fill="white"/>
<path id="l" d="M129.317 179.311L131.725 190.864L129.96 191.232L127.552 179.679L129.317 179.311Z" fill="white"/>
<path id="l_2" d="M120.738 180.634L121.553 192.407L119.754 192.531L118.939 180.759L120.738 180.634Z" fill="white"/>
<path id="n" d="M106.794 180.295L106.283 184.806C106.224 185.327 106.344 185.775 106.643 186.15C106.93 186.523 107.335 186.74 107.856 186.799C108.203 186.838 108.521 186.797 108.81 186.676C109.099 186.554 109.334 186.367 109.517 186.112C109.7 185.858 109.811 185.557 109.85 185.21L110.506 185.68C110.439 186.277 110.249 186.789 109.936 187.216C109.623 187.653 109.224 187.976 108.738 188.185C108.24 188.404 107.704 188.48 107.129 188.415C106.542 188.349 106.038 188.138 105.617 187.782C105.194 187.438 104.879 187.012 104.673 186.504C104.465 186.008 104.39 185.505 104.448 184.994L105.002 180.092L106.794 180.295ZM112.152 180.901L111.267 188.719L109.476 188.516L110.361 180.699L112.152 180.901Z" fill="white"/>
<path id="e_2" d="M94.4622 177.163C95.2058 177.42 95.8202 177.817 96.3051 178.354C96.7762 178.899 97.0857 179.526 97.2337 180.235C97.3713 180.942 97.3136 181.662 97.0604 182.395C96.8073 183.128 96.4104 183.725 95.8699 184.186C95.3259 184.657 94.7058 184.963 94.0097 185.105C93.3033 185.242 92.5938 185.188 91.8811 184.942C91.1891 184.703 90.6349 184.333 90.2187 183.831C89.7921 183.325 89.5253 182.742 89.4183 182.081C89.301 181.416 89.3653 180.727 89.6113 180.015C89.6541 179.891 89.709 179.765 89.776 179.638C89.8292 179.517 89.8979 179.385 89.9824 179.241L96.0867 181.348L95.6054 182.742L90.3842 180.94L91.2119 180.602C91.0757 181.063 91.0316 181.476 91.0796 181.839C91.1275 182.202 91.2676 182.517 91.4998 182.782C91.7216 183.043 92.0391 183.245 92.4522 183.388C92.886 183.538 93.2951 183.575 93.6795 183.499C94.0639 183.424 94.4027 183.246 94.6959 182.966C94.9856 182.696 95.2107 182.329 95.3711 181.864C95.5316 181.399 95.5794 180.959 95.5147 180.544C95.45 180.128 95.2811 179.764 95.008 179.45C94.7314 179.146 94.3709 178.918 93.9268 178.765C93.5446 178.633 93.1703 178.579 92.8038 178.602C92.4269 178.622 92.0803 178.722 91.7639 178.902L91.0591 177.428C91.5668 177.129 92.1163 176.961 92.7076 176.922C93.2989 176.883 93.8838 176.964 94.4622 177.163Z" fill="white"/>
<path id="s" d="M83.208 171.969C83.5836 172.193 83.9172 172.455 84.2087 172.756C84.4946 173.066 84.73 173.396 84.9149 173.748C85.0942 174.109 85.2135 174.485 85.273 174.877L83.7003 175.276C83.6276 174.864 83.483 174.498 83.2664 174.178C83.0348 173.862 82.7265 173.59 82.3415 173.361C81.9941 173.154 81.7005 173.049 81.4606 173.046C81.2207 173.043 81.0421 173.14 80.9247 173.338C80.8018 173.544 80.7913 173.754 80.8932 173.967C80.9951 174.181 81.1599 174.406 81.3875 174.643C81.6001 174.884 81.8314 175.136 82.0816 175.4C82.3224 175.657 82.537 175.938 82.7254 176.241C82.8989 176.547 82.9947 176.878 83.0128 177.232C83.0309 177.586 82.9198 177.965 82.6795 178.369C82.4224 178.801 82.103 179.113 81.7214 179.305C81.3304 179.492 80.9015 179.561 80.4347 179.512C79.9585 179.458 79.4622 179.277 78.9458 178.969C78.4013 178.645 77.9811 178.261 77.6853 177.818C77.3746 177.379 77.193 176.883 77.1404 176.33L78.7132 175.931C78.765 176.293 78.8814 176.61 79.0622 176.883C79.2431 177.156 79.4978 177.39 79.8264 177.586C80.1363 177.77 80.4037 177.866 80.6286 177.873C80.8535 177.879 81.019 177.794 81.1252 177.615C81.237 177.427 81.2391 177.232 81.1316 177.028C81.024 176.824 80.8612 176.606 80.643 176.374C80.4154 176.137 80.1841 175.885 79.9489 175.618C79.6987 175.355 79.4897 175.065 79.3218 174.749C79.139 174.436 79.0413 174.098 79.0288 173.735C79.0107 173.381 79.1246 172.997 79.3705 172.584C79.7617 171.927 80.3019 171.543 80.9912 171.432C81.6804 171.321 82.4194 171.5 83.208 171.969Z" fill="white"/>
<path id="s_2" d="M73.1024 164.621C73.4269 164.914 73.7027 165.236 73.9297 165.588C74.1495 165.948 74.3155 166.319 74.428 166.7C74.5332 167.089 74.5766 167.481 74.5583 167.877L72.9379 167.96C72.9473 167.542 72.8771 167.155 72.7272 166.799C72.5619 166.444 72.3129 166.116 71.9802 165.816C71.68 165.546 71.4126 165.385 71.1779 165.336C70.9433 165.286 70.7491 165.346 70.5954 165.516C70.4344 165.695 70.383 165.899 70.4412 166.128C70.4995 166.357 70.6169 166.61 70.7937 166.887C70.955 167.165 71.1326 167.458 71.3264 167.765C71.512 168.065 71.6676 168.382 71.7931 168.716C71.9032 169.05 71.9325 169.393 71.881 169.744C71.8294 170.095 71.6463 170.445 71.3316 170.794C70.995 171.167 70.6207 171.411 70.2088 171.525C69.7888 171.631 69.3547 171.615 68.9065 171.476C68.4502 171.329 67.9989 171.054 67.5527 170.652C67.0821 170.227 66.7451 169.769 66.5418 169.277C66.323 168.785 66.2419 168.263 66.2986 167.711L67.919 167.627C67.8991 167.992 67.9511 168.326 68.0751 168.629C68.199 168.932 68.403 169.212 68.6869 169.468C68.9547 169.709 69.1982 169.855 69.4174 169.906C69.6367 169.956 69.8158 169.905 69.9549 169.75C70.1012 169.588 70.1416 169.397 70.0761 169.176C70.0106 168.955 69.8935 168.709 69.7248 168.439C69.5481 168.162 69.3705 167.87 69.1922 167.562C68.9984 167.254 68.8501 166.929 68.7473 166.587C68.6291 166.244 68.5994 165.894 68.6583 165.535C68.7099 165.184 68.8966 164.83 69.2186 164.473C69.7309 163.905 70.3359 163.634 71.0335 163.66C71.7312 163.686 72.4208 164.007 73.1024 164.621Z" fill="white"/>
<path id="w_2" d="M59.8627 148.623L54.2536 154.982L53.4146 153.313L57.5689 148.84L57.8338 149.331L51.7734 150.047L51.3024 149.11L55.4934 144.674L55.729 145.179L49.6611 145.844L48.8221 144.174L57.2721 143.468L57.7431 144.405L53.8378 148.753L53.5728 148.226L59.3917 147.686L59.8627 148.623Z" fill="white"/>
<path id="i" d="M54.0534 134.552L46.4528 136.583L45.9873 134.842L53.5879 132.81L54.0534 134.552ZM44.8266 136.085C44.9056 136.38 44.8716 136.655 44.7246 136.909C44.5748 137.153 44.3522 137.314 44.0566 137.393C43.761 137.472 43.4875 137.444 43.2362 137.307C42.982 137.16 42.8154 136.939 42.7364 136.643C42.6546 136.337 42.6886 136.062 42.8384 135.819C42.9882 135.575 43.2109 135.414 43.5065 135.335C43.802 135.256 44.0755 135.285 44.3268 135.421C44.5782 135.557 44.7448 135.779 44.8266 136.085Z" fill="white"/>
<path id="t_2" d="M52.1038 124.942L41.0165 126.077L40.8328 124.283L51.9202 123.148L52.1038 124.942ZM46.1 127.451L44.4695 127.618L43.9018 122.074L45.5323 121.907L46.1 127.451Z" fill="white"/>
<path id="h" d="M52.1171 109.253L47.6008 108.789C47.079 108.735 46.6324 108.859 46.2608 109.162C45.8903 109.453 45.6782 109.86 45.6245 110.381C45.5888 110.729 45.633 111.047 45.7572 111.334C45.8814 111.622 46.0716 111.855 46.3277 112.035C46.5837 112.216 46.8857 112.323 47.2335 112.359L46.7701 113.02C46.1723 112.959 45.6585 112.774 45.2289 112.466C44.7883 112.157 44.4611 111.761 44.2471 111.278C44.0235 110.782 43.9413 110.247 44.0005 109.671C44.0609 109.084 44.245 108.575 44.5528 108.146C44.8606 107.716 45.2617 107.395 45.7559 107.182C46.2392 106.968 46.7853 106.892 47.3939 106.955L52.3015 107.46L52.1171 109.253ZM51.5653 114.617L39.8263 113.41L40.0108 111.616L51.7498 112.824L51.5653 114.617Z" fill="white"/>
<path id="E" d="M56.7486 91.8801L46.4995 86.7237L47.3466 85.0399L57.5957 90.1964L56.7486 91.8801ZM57.3306 90.7235L55.7932 89.95L58.6808 84.2105L60.2182 84.9839L57.3306 90.7235ZM52.8356 88.462L51.3568 87.718L53.9939 82.4763L55.4727 83.2203L52.8356 88.462ZM48.6188 86.3405L47.0814 85.567L49.9322 79.9007L51.4696 80.6742L48.6188 86.3405Z" fill="white"/>
<path id="m" d="M63.5858 79.4531L57.73 74.1991L58.934 72.8572L64.7898 78.1111L63.5858 79.4531ZM67.0775 75.5614L63.5884 72.4309C63.198 72.0807 62.7876 71.9327 62.3573 71.9869C61.9187 72.0339 61.539 72.2363 61.2179 72.5942C60.999 72.8381 60.8507 73.1015 60.7732 73.3843C60.703 73.6589 60.7103 73.9371 60.7952 74.2188C60.872 74.4932 61.0405 74.7471 61.3007 74.9806L60.5373 75.2425C60.0899 74.8412 59.7912 74.397 59.641 73.9099C59.4908 73.4228 59.4759 72.9323 59.5961 72.4383C59.7082 71.937 59.9504 71.4789 60.3225 71.0642C60.6947 70.6494 61.1198 70.3555 61.5979 70.1826C62.0761 70.0097 62.5653 69.9716 63.0658 70.0683C63.5662 70.165 64.0442 70.4176 64.4996 70.8263L68.2815 74.2195L67.0775 75.5614ZM70.5692 71.6698L67.0801 68.5393C66.6897 68.189 66.2793 68.041 65.849 68.0953C65.4105 68.1422 65.0307 68.3446 64.7096 68.7025C64.498 68.9384 64.3534 69.1977 64.2759 69.4804C64.1983 69.7632 64.202 70.0454 64.2869 70.3271C64.3637 70.6015 64.5322 70.8555 64.7924 71.089L63.821 71.5827C63.4102 71.1406 63.1406 70.6639 63.0123 70.1524C62.884 69.6409 62.8836 69.1341 63.0112 68.632C63.1379 68.1145 63.3874 67.6483 63.7595 67.2335C64.139 66.8106 64.5714 66.5086 65.0568 66.3275C65.5422 66.1465 66.0388 66.1003 66.5466 66.1888C67.0543 66.2774 67.5359 66.526 67.9914 66.9346L71.7732 70.3278L70.5692 71.6698Z" fill="white"/>
<path id="p" d="M80.9987 63.6991C80.4942 64.0256 79.9764 64.211 79.4454 64.2553C78.9085 64.2904 78.4037 64.1941 77.9309 63.9664C77.4674 63.7328 77.0812 63.3775 76.7725 62.9004L75.5437 61.0015C75.235 60.5245 75.0736 60.0237 75.0595 59.4992C75.0455 58.9747 75.1674 58.4793 75.4253 58.013C75.6773 57.5376 76.051 57.1396 76.5463 56.819C77.1426 56.4331 77.7802 56.2418 78.4591 56.245C79.1412 56.2331 79.789 56.3995 80.4026 56.7443C81.0194 57.074 81.5386 57.5645 81.9601 58.2158C82.3756 58.858 82.6104 59.5325 82.6644 60.2394C82.7216 60.9312 82.6051 61.5858 82.3148 62.2032C82.0337 62.8146 81.595 63.3133 80.9987 63.6991ZM79.825 62.4284C80.1919 62.1909 80.4595 61.9006 80.6279 61.5573C80.7995 61.199 80.8653 60.818 80.8253 60.4144C80.7946 60.0048 80.6515 59.6028 80.3963 59.2083C80.141 58.8138 79.8328 58.5187 79.4718 58.3228C79.1199 58.121 78.7484 58.0296 78.3572 58.0485C77.9692 58.0523 77.5917 58.1729 77.2248 58.4104C76.8578 58.6478 76.5886 58.9457 76.417 59.304C76.2395 59.6532 76.1707 60.0296 76.2106 60.4333C76.2506 60.8369 76.3982 61.236 76.6535 61.6304C76.9087 62.0249 77.2123 62.323 77.5642 62.5248C77.916 62.7266 78.2905 62.8226 78.6877 62.8129C79.0789 62.794 79.458 62.6658 79.825 62.4284ZM79.1543 68.6021L73.099 59.2451L74.6126 58.2656L75.7614 60.0407L76.5418 61.8198L77.8362 63.2468L80.6679 67.6226L79.1543 68.6021Z" fill="white"/>
<path id="o_3" d="M93.3565 57.5421C92.6373 57.8023 91.9235 57.8688 91.2151 57.7416C90.503 57.6041 89.8664 57.3057 89.3052 56.8464C88.7542 56.3833 88.3487 55.7922 88.0885 55.0729C87.8283 54.3537 87.7637 53.645 87.8946 52.9469C88.0358 52.2451 88.338 51.6188 88.801 51.0678C89.2603 50.5066 89.8496 50.0959 90.5689 49.8357C91.2984 49.5718 92.0173 49.5035 92.7257 49.6307C93.434 49.7579 94.0637 50.053 94.6146 50.5161C95.1721 50.9651 95.581 51.5493 95.8412 52.2685C96.1013 52.9878 96.1627 53.7035 96.0252 54.4155C95.898 55.1239 95.6047 55.7587 95.1454 56.3199C94.6824 56.8708 94.0861 57.2782 93.3565 57.5421ZM92.7655 55.9084C93.1868 55.756 93.5233 55.5297 93.7749 55.2295C94.0331 54.9154 94.1882 54.5571 94.2402 54.1549C94.3025 53.7489 94.2556 53.3301 94.0995 52.8985C93.9434 52.467 93.7134 52.1203 93.4095 51.8584C93.1056 51.5964 92.7609 51.4306 92.3755 51.3609C91.9863 51.2809 91.5811 51.3171 91.1598 51.4695C90.7488 51.6182 90.4142 51.8496 90.1561 52.1638C89.9044 52.4639 89.7456 52.8119 89.6796 53.2076C89.6239 53.5996 89.674 54.0114 89.8301 54.4429C89.9863 54.8745 90.213 55.2282 90.5103 55.5041C90.8179 55.7763 91.1663 55.9524 91.5555 56.0324C91.9512 56.0984 92.3545 56.0571 92.7655 55.9084Z" fill="white"/>
<path id="V" d="M107.722 53.9051L101.911 42.9794L103.948 42.7653L108.521 51.6293L107.804 51.7046L110.468 42.0804L112.473 41.8698L109.026 53.7682L107.722 53.9051Z" fill="white"/>
<path id="R_2" d="M122.342 48.8818L122.567 47.3411L125.438 47.7613C126.011 47.8451 126.475 47.764 126.832 47.518C127.2 47.2628 127.423 46.8703 127.501 46.3405C127.57 45.8648 127.472 45.4418 127.206 45.0716C126.94 44.7013 126.521 44.4743 125.948 44.3904L123.061 43.9679L123.298 42.3461L126.266 42.7805C126.98 42.885 127.585 43.1227 128.083 43.4937C128.583 43.854 128.942 44.3041 129.161 44.8442C129.393 45.375 129.462 45.954 129.371 46.581C129.274 47.2405 129.039 47.7914 128.665 48.2336C128.302 48.6774 127.83 48.9949 127.25 49.1861C126.67 49.3772 126.023 49.4206 125.309 49.3161L122.342 48.8818ZM120.355 53.5108L122.017 42.1586L123.882 42.4316L122.22 53.7838L120.355 53.5108ZM126.583 54.4223L123.331 48.9107L125.159 48.5322L128.935 54.7665L126.583 54.4223Z" fill="white"/>
<path id="|" d="M142.803 62.0415L149.598 48.9482L151.053 49.7031L144.258 62.7964L142.803 62.0415Z" fill="white"/>
</g>
<circle id="Ellipse 3" cx="116" cy="116" r="53" transform="rotate(-137.951 116 116)" fill="white"/>
<g id="Outline / Arrows / Arrow Down ">
<path id="Vector (Stroke)" fill-rule="evenodd" clip-rule="evenodd" d="M100.372 133.327C99.5518 132.587 99.4866 131.322 100.226 130.502L125.569 102.404L107.794 103.321C106.691 103.378 105.75 102.529 105.694 101.426C105.637 100.323 106.485 99.3828 107.588 99.326L130.185 98.1611C130.715 98.1338 131.234 98.3181 131.628 98.6734C132.022 99.0286 132.258 99.5258 132.286 100.056L133.451 122.653C133.507 123.756 132.659 124.696 131.556 124.753C130.453 124.81 129.513 123.962 129.456 122.859L128.54 105.083L103.197 133.181C102.457 134.001 101.192 134.066 100.372 133.327Z" fill="#989898"/>
</g>
</g>
</svg>
