<svg width="20" height="21" viewBox="0 0 20 21" fill="none" xmlns="http://www.w3.org/2000/svg">
<g id="icon/linkedin">
<path id="Vector" d="M3.3335 8.00022H6.11127V17.4447H3.3335V8.00022ZM4.71405 6.88911H4.6985C3.86961 6.88911 3.3335 6.27133 3.3335 5.49966C3.3335 4.71133 3.88627 4.11133 4.73016 4.11133C5.57516 4.11133 6.09572 4.71133 6.11127 5.49966C6.11127 6.27077 5.57516 6.88911 4.71405 6.88911ZM16.6668 17.4447H13.8891V12.3897C13.8891 11.1685 13.2085 10.3352 12.1157 10.3352C11.2818 10.3352 10.8307 10.8974 10.6118 11.4408C10.5318 11.6352 10.5557 12.173 10.5557 12.4447V17.4447H7.77794V8.00022H10.5557V9.45355C10.9563 8.83355 11.5835 8.00022 13.1879 8.00022C15.1757 8.00022 16.6663 9.25022 16.6663 12.0413L16.6668 17.4447Z" fill="white"/>
</g>
</svg>
