<svg width="48" height="49" viewBox="0 0 48 49" fill="none" xmlns="http://www.w3.org/2000/svg">
<g id="meta-quest-3">
<path id="Rectangle 25" d="M3 29.5C3 22.3203 8.8203 16.5 16 16.5H32C39.1797 16.5 45 22.3203 45 29.5C45 36.6797 39.1797 42.5 32 42.5H16C8.8203 42.5 3 36.6797 3 29.5Z" fill="#101010" stroke="black" stroke-width="1.5"/>
<g id="Group 1">
<path id="Ellipse 1" d="M15.5361 38.6874C15.26 38.6874 15.0361 38.4636 15.0361 38.1874C15.0361 37.9113 15.26 37.6874 15.5361 37.6874" stroke="white" stroke-width="1.5"/>
<path id="Ellipse 2" d="M15.5361 38.6874C15.8123 38.6874 16.0361 38.4636 16.0361 38.1874C16.0361 37.9113 15.8123 37.6874 15.5361 37.6874" stroke="white" stroke-width="1.5"/>
</g>
<path id="Rectangle 26" d="M20 10.5C20 9.39543 20.8954 8.5 22 8.5H26C27.1046 8.5 28 9.39543 28 10.5V16.5H20V10.5Z" stroke="black" stroke-width="1.5"/>
<g id="Group 2">
<path id="Ellipse 1_2" d="M32.4639 38.6874C32.1877 38.6874 31.9639 38.4636 31.9639 38.1874C31.9639 37.9113 32.1877 37.6874 32.4639 37.6874" stroke="white" stroke-width="1.5"/>
<path id="Ellipse 2_2" d="M32.4639 38.6874C32.74 38.6874 32.9639 38.4636 32.9639 38.1874C32.9639 37.9113 32.74 37.6874 32.4639 37.6874" stroke="white" stroke-width="1.5"/>
</g>
</g>
</svg>
