<svg width="49" height="49" viewBox="0 0 49 49" fill="none" xmlns="http://www.w3.org/2000/svg">
<g id="Bold / School / Notebook Minimalistic">
<g id="Vector">
<path d="M4.08301 32.9599V10.2039C4.08301 7.96179 5.89254 6.1404 8.13041 6.27794C10.1238 6.40045 12.4814 6.64262 14.2913 7.12024C16.4335 7.68551 18.9792 8.88948 20.9926 9.9541C21.6195 10.2856 22.2862 10.5155 22.9684 10.6452L22.9684 41.6349C22.3499 41.4985 21.7465 41.2785 21.1767 40.9748C19.1361 39.887 16.4993 38.6258 14.2913 38.0432C12.5014 37.5708 10.1759 37.3288 8.19668 37.205C5.93285 37.0634 4.08301 35.2281 4.08301 32.9599Z" fill="#1C274D"/>
<path d="M26.0309 41.6349C26.6494 41.4985 27.2528 41.2785 27.8227 40.9748C29.8633 39.887 32.5 38.6258 34.708 38.0432C36.498 37.5708 38.8234 37.3288 40.8027 37.205C43.0665 37.0634 44.9163 35.2281 44.9163 32.9599V10.072C44.9163 7.8824 43.1886 6.08505 41.0004 6.16127C38.6962 6.24154 35.8246 6.48035 33.6872 7.12024C31.8341 7.675 29.6759 8.78775 27.9171 9.80566C27.322 10.1501 26.6859 10.403 26.0309 10.5634L26.0309 41.6349Z" fill="#1C274D"/>
</g>
</g>
</svg>
