<svg width="25" height="24" viewBox="0 0 25 24" fill="none" xmlns="http://www.w3.org/2000/svg">
<g id="Linear / Network, IT, Programming / Translation ">
<path id="Vector" d="M19.7664 5.00003C21.5347 6.80378 22.625 9.27458 22.625 12C22.625 14.7578 21.5086 17.2549 19.7032 19.064M5.625 19.1415C3.77364 17.3265 2.625 14.7974 2.625 12C2.625 9.235 3.74722 6.73208 5.56103 4.92188" stroke="white" stroke-width="1.5" stroke-linecap="round" stroke-linejoin="round"/>
<path id="Vector_2" d="M16.9099 8.04397C17.9708 9.05877 18.625 10.4488 18.625 11.9822C18.625 13.5338 17.9552 14.9386 16.8719 15.9564M8.425 16C7.31418 14.9789 6.625 13.556 6.625 11.9822C6.625 10.4266 7.29833 9.01843 8.38662 8" stroke="white" stroke-width="1.5" stroke-linecap="round" stroke-linejoin="round"/>
<circle id="Vector_3" cx="12.625" cy="12" r="2" stroke="white" stroke-width="1.5"/>
</g>
</svg>
