<svg width="20" height="21" viewBox="0 0 20 21" fill="none" xmlns="http://www.w3.org/2000/svg">
<g id="icon/twitter">
<path id="Vector" d="M18.0284 4.13686C17.3493 4.4577 16.1934 5.05936 15.6126 5.17436C15.5901 5.1802 15.5718 5.1877 15.5501 5.19353C14.8726 4.5252 13.9443 4.11103 12.9168 4.11103C10.8459 4.11103 9.16677 5.7902 9.16677 7.86103C9.16677 7.9702 9.15761 8.17103 9.16677 8.2777C6.48511 8.2777 4.52677 6.87853 3.06094 5.0802C2.86511 4.83853 2.65677 4.96436 2.61344 5.13603C2.51594 5.52436 2.48261 6.17353 2.48261 6.63686C2.48261 7.80436 3.39511 8.95103 4.81594 9.66186C4.55427 9.72936 4.26594 9.7777 3.96594 9.7777C3.61261 9.7777 3.20594 9.6852 2.85011 9.49853C2.71844 9.42936 2.43427 9.44853 2.51844 9.7852C2.85594 11.1344 4.39594 12.0819 5.77177 12.3577C5.45927 12.5419 4.79261 12.5044 4.48594 12.5044C4.37261 12.5044 3.97844 12.4777 3.72344 12.446C3.49094 12.4177 3.13344 12.4777 3.43261 12.931C4.07511 13.9035 5.52844 14.5144 6.77927 14.5377C5.62761 15.441 3.74427 15.771 1.94011 15.771C1.57511 15.7627 1.59344 16.1785 1.88761 16.3327C3.21844 17.031 5.39844 17.4444 6.95594 17.4444C13.1476 17.4444 16.6668 12.7252 16.6668 8.27686C16.6668 8.2052 16.6651 8.0552 16.6626 7.90436C16.6626 7.88936 16.6668 7.8752 16.6668 7.8602C16.6668 7.8377 16.6601 7.81603 16.6601 7.79353C16.6576 7.6802 16.6551 7.57436 16.6526 7.51936C17.1434 7.1652 17.8951 6.5502 18.2751 6.07936C18.4043 5.91936 18.3001 5.7252 18.1243 5.78603C17.6718 5.94353 16.8893 6.24853 16.3993 6.30686C17.3801 5.6577 17.8651 5.0927 18.2818 4.4652C18.4243 4.25103 18.2459 4.03353 18.0284 4.13686Z" fill="white"/>
</g>
</svg>
